<?xml version="1.0" standalone="no"?>
<!DOCTYPE svg PUBLIC "-//W3C//DTD SVG 1.1//EN" "http://www.w3.org/Graphics/SVG/1.1/DTD/svg11.dtd" >
<svg xmlns="http://www.w3.org/2000/svg">
<metadata></metadata>
<defs>
<font id="levenim_mtregular" horiz-adv-x="1175" >
<font-face units-per-em="2048" ascent="1638" descent="-410" />
<missing-glyph horiz-adv-x="683" />
<glyph horiz-adv-x="2048" />
<glyph horiz-adv-x="2048" />
<glyph unicode="&#xd;" horiz-adv-x="683" />
<glyph unicode=" "  horiz-adv-x="683" />
<glyph unicode="&#x09;" horiz-adv-x="683" />
<glyph unicode="&#xa0;" horiz-adv-x="683" />
<glyph unicode="!" horiz-adv-x="502" d="M165 147q0 128 86 128t86 -136q0 -138 -88 -138q-84 0 -84 146zM174 1317q-1 63 75 63q42 0 57 -12.5t15 -53.5l-7 -763q0 -53 -9 -69q-14 -23 -60 -23q-44 0 -55 29q-4 12 -5 71z" />
<glyph unicode="&#x22;" horiz-adv-x="982" d="M80 837q0 17 26 73l173 372q27 57 48 76q29 26 84 26q93 0 93 -56q0 -25 -39 -83l-267 -400q-33 -50 -66 -50q-52 0 -52 42zM483 839q0 24 28 80l187 373q46 91 125 91q85 0 85 -55q0 -37 -42 -98l-250 -365q-48 -70 -84 -70q-49 0 -49 44z" />
<glyph unicode="#" horiz-adv-x="1266" d="M39 402v123h224l77 371h-301v122h326l86 405h122l-87 -405h422l85 405h122l-86 -405h198v-122h-222l-77 -371h299v-123h-323l-84 -402h-124l86 402h-424l-82 -402h-124l85 402h-198zM384 527h423l77 369h-422z" />
<glyph unicode="$" horiz-adv-x="1113" d="M130 159q0 18 20 46t37 28q16 0 49 -19q165 -95 321 -95q286 0 286 229q0 96 -68 158q-40 37 -154 91l-156 74q-118 56 -159 83q-83 55 -120 131q-35 70 -35 169q0 148 87 238q84 85 234 103v144q0 49 12 66q15 21 61 21q44 0 57 -21q9 -14 9 -63v-142q87 -5 214 -50 q158 -57 158 -122q0 -23 -21 -52t-43 -29q-16 0 -61 29q-150 98 -301 98q-266 0 -266 -221q0 -104 91 -176q46 -35 185 -99l96 -44q230 -105 287 -221q33 -69 33 -159q0 -165 -105 -259q-98 -87 -267 -98v-173q0 -52 -9 -67q-13 -22 -60 -22t-60 17q-10 14 -10 65v177 q-78 6 -196 52q-146 56 -146 113z" />
<glyph unicode="%" horiz-adv-x="1459" d="M109 1117q0 121 84 205t205 84t205.5 -84t84.5 -205q0 -120 -85 -204.5t-205 -84.5t-204.5 84.5t-84.5 204.5zM220 1117q0 -74 52 -126t126 -52t126 52t52 126t-52 126t-126 52t-126 -52t-52 -126zM309 -37l717 1443h136l-716 -1443h-137zM784 259q0 121 84.5 205.5 t205.5 84.5t205 -84.5t84 -205.5q0 -120 -84.5 -204.5t-204.5 -84.5q-121 0 -205.5 84t-84.5 205zM896 259q0 -74 52 -126t126 -52t125.5 52t51.5 126t-51.5 126t-125.5 52t-126 -51.5t-52 -126.5z" />
<glyph unicode="&#x26;" horiz-adv-x="1242" d="M130 378q0 284 285 336q-120 18 -187 103q-64 82 -64 205q0 190 133 294q122 94 317 94q149 0 269 -72q142 -84 142 -225q0 -63 -89 -63q-25 0 -60 65q-85 158 -271 158q-294 0 -294 -261q0 -210 240 -226q61 -4 73 -10q28 -12 28 -60q0 -40 -9 -55q-12 -18 -50 -21 q-106 -9 -153 -24q-81 -25 -122 -86q-37 -56 -37 -150q0 -184 161 -220q71 -16 217 -16h293v489h-51q-105 0 -105 67q0 50 24 67q19 14 72 14h203v-781h-418q-179 0 -259 18q-138 30 -215 130q-73 93 -73 230z" />
<glyph unicode="'" horiz-adv-x="578" d="M80 827q0 22 21 66l183 383q31 64 51 82q29 25 91 25q78 0 78 -51q0 -33 -36 -87l-262 -394q-39 -58 -83 -58q-43 0 -43 34z" />
<glyph unicode="(" horiz-adv-x="612" d="M133 639q0 364 204 735q37 70 75 140q66 110 106 110q55 0 55 -54q0 -13 -9 -29q-285 -521 -285 -902q0 -383 285 -903q9 -16 9 -29q0 -54 -57 -54q-40 0 -112 123q-40 77 -79 153q-192 360 -192 710z" />
<glyph unicode=")" horiz-adv-x="612" d="M40 -293q0 13 9 29q285 521 285 903q0 379 -285 902q-9 17 -9 29q0 54 55 54q42 0 139 -171q160 -283 215 -534q31 -142 31 -280q0 -283 -116 -550q-38 -89 -106 -220q-89 -171 -122 -197q-24 -19 -40 -19q-56 0 -56 54z" />
<glyph unicode="*" horiz-adv-x="810" d="M109 1170q0 47 44 47q10 0 31 -7l175 -57v183q0 62 46 62q47 0 47 -62v-183l174 56q22 7 32 7q44 0 44 -46q0 -34 -47 -49l-175 -57l108 -148q18 -25 18 -40q0 -47 -47 -47q-23 0 -46 32l-108 149l-108 -149q-22 -31 -45 -31q-48 0 -48 46q0 15 18 40l108 148l-174 57 q-47 15 -47 49z" />
<glyph unicode="+" d="M43 596v131h477v479h131v-479h480v-131h-480v-475h-131v475h-477z" />
<glyph unicode="," horiz-adv-x="427" d="M48 -270q0 6 23 29q99 99 99 222q0 28 -14 64q-19 48 -19 99q0 154 85 154q88 0 88 -159q0 -312 -144 -435q-56 -48 -69 -48q-9 0 -29 32t-20 42z" />
<glyph unicode="-" horiz-adv-x="934" d="M39 518v121h857v-121h-857z" />
<glyph unicode="." horiz-adv-x="427" d="M127 156q0 145 86 145q45 0 69 -57q18 -43 18 -95q0 -148 -85 -148q-88 0 -88 155z" />
<glyph unicode="/" horiz-adv-x="930" d="M39 -37l717 1462h136l-717 -1462h-136z" />
<glyph unicode="0" d="M132 686q0 282 86 469q116 252 365 252q242 0 364 -227q96 -181 96 -446q0 -753 -457 -753q-245 0 -364 245q-90 186 -90 460zM289 711q0 -601 299 -601q298 0 298 570q0 597 -303 597q-171 0 -245 -215q-49 -143 -49 -351z" />
<glyph unicode="1" d="M197 1212v57q0 27 29 27h132q194 0 217 106l115 1v-1273l274 -1q39 0 39 -36v-56q0 -36 -30 -36h-684q-27 0 -33 5q-9 6 -9 30v64q0 28 32 28h269v1050h-317q-24 0 -29 5t-5 29z" />
<glyph unicode="2" d="M133 1q17 253 198 426q79 75 203 165q152 110 212 176q105 117 105 246q0 121 -74.5 192t-195.5 71q-285 0 -285 -319q0 -30 -5 -37q-6 -10 -33 -10h-55q-28 0 -35 14q-3 7 -3 42q0 201 119.5 319t320.5 118q164 0 281 -110q120 -113 120 -276q0 -188 -152 -325 q-72 -66 -216 -176q-172 -132 -211 -168q-113 -107 -148 -220h621l13 138q3 37 36 37h57q32 0 32 -24q0 -14 -2 -30l-31 -249h-872z" />
<glyph unicode="3" d="M141 397q0 43 5 54q9 20 44 20h27q34 0 46 -9t12 -41q0 -309 291 -309q133 0 213.5 77t80.5 209q0 127 -90 204q-84 73 -214 73q-29 0 -29 14v88q0 26 40 26q109 0 183 61q79 65 79 172q0 110 -80 178q-76 63 -188 63q-106 0 -181 -57q-82 -63 -82 -167q0 -30 -32 -30 h-60q-27 0 -34 11q-5 8 -5 37q0 154 121 248q111 86 269 86q173 0 290 -87q131 -96 131 -263q0 -237 -221 -309q262 -96 262 -354q0 -190 -131 -303q-125 -107 -318 -107t-311 111.5t-118 303.5z" />
<glyph unicode="4" d="M80 416v71q0 22 47 89l561 795q23 33 49 33h74q32 0 32 -23v-872h209q40 0 40 -28v-70q0 -24 -22 -24h-227v-268h205q38 0 38 -28v-57q0 -33 -29 -33h-594q-42 0 -42 30v59q0 29 38 29h250v268h-593q-25 0 -29 2q-7 5 -7 27zM234 509h479v678z" />
<glyph unicode="5" d="M140 384q0 30 2 36q6 13 29 13h68q26 0 33.5 -6t7.5 -30q0 -123 78 -203t201 -80q143 0 226 97q78 92 78 237q0 138 -69 227q-76 96 -211 96q-110 0 -212 -77q-25 -19 -53 -19h-63q-30 0 -30 19l1 11l38 682h695q30 0 30 -35v-62q0 -35 -30 -35h-576l-23 -440 q108 84 246 84q191 0 305 -127q110 -123 110 -316q0 -206 -117 -337q-123 -136 -326 -136q-189 0 -310 105q-128 110 -128 296z" />
<glyph unicode="6" d="M148 590v90q0 198 50 364q65 215 198 300q104 66 232 66q146 0 256 -71q126 -83 126 -222q0 -30 -28 -30h-86q-27 0 -27 24q0 82 -77 129q-65 40 -152 40q-314 0 -336 -541q127 163 336 163q190 0 303 -131q107 -123 107 -317q0 -207 -116 -337q-122 -136 -326 -136 q-231 0 -355 197q-105 167 -105 412zM311 461q0 -141 80 -241q86 -108 223 -108q130 0 207 107q69 95 69 230q0 140 -72 227q-77 93 -214 93q-132 0 -212.5 -87.5t-80.5 -220.5z" />
<glyph unicode="7" d="M150 1108q0 5 1 16l24 261h789v-144l-373 -1188q-11 -36 -15 -41q-10 -11 -40 -11h-72q-42 0 -42 14q0 7 12 43l396 1201h-544l-12 -131q-3 -28 -6 -33q-6 -8 -30 -8h-57q-31 0 -31 21z" />
<glyph unicode="8" d="M127 392q0 120 76 214q73 91 190 127q-100 37 -156 125q-55 85 -55 194q0 167 128 265q117 90 289 90q164 0 278 -95q121 -102 121 -262q0 -213 -209 -317q259 -97 259 -357q0 -189 -141 -296q-127 -97 -322 -97q-196 0 -323 105q-135 112 -135 304zM286 382 q0 -128 90 -203q84 -70 215 -70q129 0 214 74q88 78 88 205q0 122 -88 200q-85 75 -209 75q-134 0 -219 -73q-91 -77 -91 -208zM332 1027q0 -110 75 -174q71 -62 182 -62q112 0 184.5 67t72.5 178q0 108 -74 177t-182 69q-115 0 -186.5 -70t-71.5 -185z" />
<glyph unicode="9" d="M125 943q0 200 115 331q120 136 317 136q256 0 375 -212q94 -168 94 -446q0 -305 -92 -503q-124 -268 -393 -268q-146 0 -253 70q-124 81 -124 221q0 35 74 35h22q41 0 44 -38q6 -77 81 -120q64 -37 147 -37q313 0 337 541q-127 -165 -332 -165q-195 0 -307 132 q-105 125 -105 323zM285 948q0 -142 70 -229q76 -95 215 -95q128 0 211 87.5t83 215.5q0 139 -78 241q-85 112 -220 112q-128 0 -208 -105q-73 -95 -73 -227z" />
<glyph unicode=":" horiz-adv-x="463" d="M145 156q0 145 86 145q45 0 69 -57q18 -43 18 -95q0 -148 -85 -148q-88 0 -88 155zM145 989q0 152 86 152q46 0 69 -60q18 -45 18 -99q0 -145 -84 -145q-89 0 -89 152z" />
<glyph unicode=";" horiz-adv-x="463" d="M69 -267q0 6 23 29q99 99 99 222q0 28 -14 64q-19 48 -19 99q0 154 85 154q88 0 88 -159q0 -118 -51 -278q-66 -205 -162 -205q-9 0 -29 32t-20 42zM161 994q0 147 86 147q87 0 87 -153q0 -151 -84 -151q-89 0 -89 157z" />
<glyph unicode="&#x3c;" d="M45 604v118l1085 457v-142l-909 -373l909 -375v-143z" />
<glyph unicode="=" d="M45 366v131h1085v-131h-1085zM45 834v131h1085v-131h-1085z" />
<glyph unicode="&#x3e;" d="M45 146v143l909 373l-909 374v143l1085 -458v-118z" />
<glyph unicode="?" horiz-adv-x="743" d="M84 1063q0 138 81 228t218 90q138 0 214 -86q72 -83 72 -223q0 -138 -124 -303q-112 -149 -112 -287q0 -46 -6 -60q-11 -24 -50 -24q-47 0 -60 20q-9 15 -9 66q0 93 32 171q24 58 89 152q101 146 101 259q0 82 -34 136q-40 63 -118 63q-164 0 -164 -238 q0 -39 -10.5 -51.5t-48.5 -12.5q-49 0 -62 27q-9 17 -9 73zM294 145q0 126 83 126q90 0 90 -144q0 -126 -84 -126q-89 0 -89 144z" />
<glyph unicode="@" horiz-adv-x="1776" d="M137 750q0 213 103 398.5t286 289.5q180 102 394 102q282 0 494 -178q224 -188 224 -466q0 -369 -321 -533q-114 -58 -193 -58q-58 0 -92 31q-26 23 -27 80q-80 -101 -217 -101q-153 0 -245 106q-87 102 -87 257q0 192 116 327q122 142 312 142q164 0 260 -148l26 138 h108l-116 -654q-5 -28 -5 -41q0 -49 50 -49q79 0 176 87q84 75 125 158q52 107 52 238q0 255 -197 421q-183 155 -448 155q-194 0 -351 -87q-163 -89 -256 -253t-93 -353q0 -191 92 -351q93 -163 258 -255t363 -92q158 0 284 62q109 55 232 178h106q-135 -168 -248 -234 q-161 -94 -369 -94q-215 0 -399 100q-188 103 -293 286q-104 179 -104 391zM600 696q0 -115 60 -189q65 -79 178 -79q149 0 216 166q44 108 44 219q0 97 -52 160q-56 67 -151 67q-132 0 -217 -109q-78 -100 -78 -235z" />
<glyph unicode="A" horiz-adv-x="1515" d="M49 0l695 1471h36l686 -1471h-158l-231 484h-634l-230 -484h-164zM509 626h503l-250 533z" />
<glyph unicode="B" horiz-adv-x="1176" d="M183 0v1471h290q310 0 418 -169q54 -86 54 -191q0 -207 -189 -309q204 -69 274 -218q34 -75 34 -162q0 -195 -144 -313q-134 -109 -333 -109h-404zM327 144h182q129 0 198 19q103 29 159 111q45 67 45 145q0 104 -70 178q-64 68 -170 93q-75 18 -261 18h-83v-564z M327 856h84q122 0 187 17q100 26 152 102q42 61 42 136q0 216 -295 216h-170v-471z" />
<glyph unicode="C" horiz-adv-x="1665" d="M111 744q0 333 232 551q227 213 562 213q420 0 644 -310l-116 -89q-195 254 -526 254q-172 0 -321 -82q-153 -83 -236.5 -227.5t-83.5 -322.5q0 -276 188 -454q185 -175 462 -175q309 0 517 242l116 -88q-230 -293 -642 -293q-387 0 -609 257q-187 216 -187 524z" />
<glyph unicode="D" horiz-adv-x="1524" d="M179 0v1471h305q329 0 479 -53q224 -79 343 -273q112 -182 112 -428q0 -201 -84 -368q-92 -181 -259 -269q-153 -80 -428 -80h-468zM320 139h170q306 0 423 38q176 57 269 206q87 140 87 332q0 206 -97 355q-102 158 -293 216q-138 42 -455 42h-104v-1189z" />
<glyph unicode="E" horiz-adv-x="1098" d="M180 0v1471h843v-145h-696v-460h690v-144h-690v-577h690v-145h-837z" />
<glyph unicode="F" horiz-adv-x="993" d="M179 0v1471h737v-145h-591v-460h591v-145h-591v-721h-146z" />
<glyph unicode="G" horiz-adv-x="1786" d="M117 736q0 210 105 389.5t288 281t414 101.5q375 0 674 -284l-114 -108q-250 246 -555 246q-173 0 -327 -84q-159 -85 -245 -231t-86 -308q0 -172 91 -319.5t244 -230.5q157 -86 344 -86q219 0 376 121q164 126 194 339h-469v142h634q-2 -340 -201 -541t-538 -201 q-408 0 -646 278q-183 214 -183 495z" />
<glyph unicode="H" horiz-adv-x="1399" d="M177 0v1471h148v-617h748v617h148v-1471h-148v710h-748v-710h-148z" />
<glyph unicode="I" horiz-adv-x="463" d="M158 0v1471h147v-1471h-147z" />
<glyph unicode="J" horiz-adv-x="987" d="M86 119l78 117q114 -81 191 -114q50 -22 98 -22q65 0 115.5 38.5t71 101t20.5 243.5v988h148v-993q0 -179 -18 -256q-31 -138 -136 -205q-83 -54 -201 -54q-179 0 -367 156z" />
<glyph unicode="K" horiz-adv-x="1210" d="M179 0v1471h150v-552l587 552h199l-707 -660l762 -811h-195l-646 686v-686h-150z" />
<glyph unicode="L" horiz-adv-x="946" d="M179 0v1471h148v-1329h565v-142h-713z" />
<glyph unicode="M" horiz-adv-x="1882" d="M112 0l209 1471h24l598 -1207l592 1207h24l211 -1471h-145l-144 1052l-520 -1052h-37l-527 1060l-143 -1060h-142z" />
<glyph unicode="N" horiz-adv-x="1515" d="M180 0v1471h32l978 -1126v1126h145v-1471h-33l-970 1112v-1112h-152z" />
<glyph unicode="O" horiz-adv-x="1780" d="M115 729q0 210 101 391t281 286q177 102 383 102q332 0 557 -219q227 -222 227 -553q0 -325 -223.5 -549t-548.5 -224t-551 221t-226 545zM268 729q0 -261 179 -442t440 -181q170 0 315.5 82t227.5 227t82 321q0 364 -311 543q-148 85 -314 85q-165 0 -310 -85t-227 -229 t-82 -321z" />
<glyph unicode="P" horiz-adv-x="1212" d="M178 0v1471h293q251 0 340 -22q134 -33 210 -132t76 -238q0 -301 -293 -371q-100 -24 -374 -24h-105v-684h-147zM325 828l249 -3h12q243 0 319 117q40 61 40 137q0 73 -39.5 134.5t-105.5 88t-215 26.5h-260v-500z" />
<glyph unicode="Q" horiz-adv-x="1784" d="M117 729q0 210 101 390q102 184 283 287q177 102 389 102q329 0 552.5 -222.5t223.5 -550.5q0 -336 -253 -575l218 -276h-181l-150 190q-180 -111 -406 -111q-325 0 -551 221t-226 545zM270 729q0 -261 178.5 -442t439.5 -181q175 0 320 85l-328 416h179l263 -332 q192 187 192 461q0 364 -311 543q-148 85 -312 85q-166 0 -311.5 -84.5t-227.5 -229t-82 -321.5z" />
<glyph unicode="R" horiz-adv-x="1243" d="M187 0v1471h293q245 0 332 -20q136 -31 215.5 -131t79.5 -240q0 -252 -218 -348q-105 -47 -290 -48l529 -684h-182l-528 684h-84v-684h-147zM334 827l253 -2h8q244 0 320 118q39 61 39 137q0 73 -39 133.5t-105 87t-217 26.5h-259v-500z" />
<glyph unicode="S" horiz-adv-x="1020" d="M27 274l125 75q132 -243 305 -243q164 0 238 127q34 58 34 123q0 74 -50 145q-65 93 -242 225q-181 134 -239 212q-78 105 -78 225q0 204 176 300q83 45 181 45q210 0 386 -241l-120 -91q-67 88 -114 125q-70 55 -155 55t-142 -51q-60 -52 -60 -136q0 -99 93 -191 q27 -26 190 -147q150 -111 224 -200q109 -133 109 -272q0 -167 -126 -283q-122 -113 -291 -113q-274 0 -444 311z" />
<glyph unicode="T" horiz-adv-x="872" d="M33 1328v143h807v-143h-328v-1328h-150v1328h-329z" />
<glyph unicode="U" horiz-adv-x="1341" d="M184 583v888h147v-888q0 -153 6 -197q23 -172 174 -243q83 -40 167 -40q156 0 252 117q45 55 66 133q15 56 15 230v888h147v-888q0 -188 -30 -292q-43 -145 -160.5 -236.5t-281.5 -91.5q-166 0 -292 76q-136 83 -183 234q-27 87 -27 310z" />
<glyph unicode="V" horiz-adv-x="1438" d="M67 1471h160l487 -1137l496 1137h160l-640 -1471h-32z" />
<glyph unicode="W" horiz-adv-x="1966" d="M96 1471h151l299 -1060l422 1060h30l417 -1060l305 1060h150l-422 -1471h-28l-436 1113l-445 -1113h-28z" />
<glyph unicode="X" horiz-adv-x="1247" d="M69 0l469 758l-437 713h172l352 -574l355 574h170l-438 -713l467 -758h-172l-382 617l-384 -617h-172z" />
<glyph unicode="Y" horiz-adv-x="1212" d="M63 1471h170l376 -606l370 606h170l-466 -768v-703h-145v703z" />
<glyph unicode="Z" horiz-adv-x="983" d="M56 0l619 1329h-553v142h776l-615 -1328h584v-143h-811z" />
<glyph unicode="[" horiz-adv-x="877" d="M265 -347v1971h489q95 0 95 -72t-95 -72h-346v-1683h346q95 0 95 -72t-95 -72h-489z" />
<glyph unicode="\" horiz-adv-x="933" d="M39 1425h136l719 -1462h-136z" />
<glyph unicode="]" horiz-adv-x="877" d="M27 -275q0 72 96 72h345v1683h-345q-96 0 -96 72t96 72h488v-1971h-488q-96 0 -96 72z" />
<glyph unicode="^" horiz-adv-x="710" d="M29 974q0 17 21 43l304 381l305 -380q21 -26 21 -43q0 -52 -53 -52q-22 0 -47 32l-226 287l-225 -287q-25 -32 -48 -32q-52 0 -52 51z" />
<glyph unicode="_" horiz-adv-x="928" d="M-96 -274q0 73 97 73h928q96 0 96 -73t-96 -73h-928q-97 0 -97 73z" />
<glyph unicode="`" horiz-adv-x="774" d="M111 1598h215l218 -308h-138z" />
<glyph unicode="a" horiz-adv-x="1399" d="M107 547q0 235 163.5 402t398.5 167q269 0 433 -228v200h138v-1088h-138v187q-177 -215 -437 -215q-236 0 -398 170q-160 167 -160 405zM248 542q0 -116 59 -220.5t158.5 -163t213.5 -58.5q115 0 218 58t158.5 157t55.5 223q0 187 -122.5 315t-308.5 128 q-250 0 -373 -219q-59 -104 -59 -220z" />
<glyph unicode="b" horiz-adv-x="1397" d="M165 0v1508h139v-607q175 215 436 215q236 0 397 -168.5t161 -405.5q0 -236 -163.5 -403t-398.5 -167q-266 0 -432 228v-200h-139zM294 550q0 -187 122.5 -315t308.5 -128q250 0 374 219q58 104 58 220t-59 221t-158.5 163.5t-212.5 58.5q-115 0 -218.5 -58.5 t-159 -157.5t-55.5 -223z" />
<glyph unicode="c" horiz-adv-x="1325" d="M105 535q0 159 79.5 294t218.5 211t311 76q222 0 379 -119q70 -53 119 -135l-111 -69q-144 191 -393 191q-193 0 -326 -122q-136 -126 -136 -317q0 -120 61 -224.5t166 -162.5t236 -58q240 0 392 191l111 -73q-164 -246 -509 -246q-249 0 -421 156q-177 161 -177 407z " />
<glyph unicode="d" horiz-adv-x="1403" d="M109 547q0 235 163.5 402t398.5 167q269 0 433 -228v620h138v-1508h-138v187q-177 -215 -437 -215q-236 0 -398 170q-160 167 -160 405zM250 542q0 -116 59 -220.5t158.5 -163t213.5 -58.5q115 0 218 58t158.5 157t55.5 223q0 187 -122.5 315t-308.5 128 q-250 0 -373 -219q-59 -104 -59 -220z" />
<glyph unicode="e" horiz-adv-x="1331" d="M104 541q0 207 127 369q161 206 431 206q278 0 444 -211q118 -150 120 -372h-978q4 -183 114 -305q116 -128 296 -128q174 0 295 106q55 48 119 155l118 -62q-110 -215 -305 -290q-95 -37 -215 -37q-245 0 -405.5 162t-160.5 407zM262 654h810q-52 207 -223 287 q-88 41 -185 41q-160 0 -275 -103q-84 -75 -127 -225z" />
<glyph unicode="f" horiz-adv-x="643" d="M79 968v120h143v170q0 95 13 140q20 71 82 108q51 30 124 30q68 0 163 -28v-137q-77 33 -132 33q-84 0 -102 -54q-7 -22 -7 -115v-147h227v-120h-228v-968h-140v968h-143z" />
<glyph unicode="g" horiz-adv-x="1378" d="M100 552q0 152 75 282t207.5 206t279.5 76q248 0 431 -217v189h141v-867q0 -227 -40 -335q-59 -159 -206 -240q-131 -72 -312 -72q-280 0 -433 145q-70 67 -129 195h152q122 -212 403 -212q285 0 382 188q42 81 42 261v56q-164 -207 -435 -207q-149 0 -281 73.5 t-204.5 200.5t-72.5 278zM241 545q0 -185 124 -300q121 -113 307 -113q192 0 310 115t118 306q0 255 -207 372q-99 56 -213 56q-119 0 -221 -57t-160 -159t-58 -220z" />
<glyph unicode="h" horiz-adv-x="1249" d="M156 0v1508h140v-615q169 223 408 223q119 0 214.5 -60.5t141 -166.5t45.5 -329v-560h-140v519q0 188 -15 251q-52 217 -274 217q-127 0 -227.5 -83.5t-132.5 -208.5q-20 -78 -20 -296v-399h-140z" />
<glyph unicode="i" horiz-adv-x="410" d="M90 1420q0 48 33.5 82t81.5 34t82 -34t34 -82t-34 -81.5t-82 -33.5q-47 0 -81 34t-34 81zM135 0v1088h141v-1088h-141z" />
<glyph unicode="j" horiz-adv-x="416" d="M-64 -266q56 -29 101 -29q58 0 85 47q17 29 17 125v1211h142v-1252q0 -262 -185 -262q-71 0 -160 34v126zM93 1420q0 48 33.5 82t81.5 34t81.5 -34t33.5 -82t-33.5 -81.5t-81.5 -33.5t-81.5 33.5t-33.5 81.5z" />
<glyph unicode="k" horiz-adv-x="1028" d="M155 0v1508h141v-858l503 438h206l-597 -519l632 -569h-198l-546 489v-489h-141z" />
<glyph unicode="l" horiz-adv-x="410" d="M135 0v1508h140v-1508h-140z" />
<glyph unicode="m" horiz-adv-x="1921" d="M155 0v1088h139v-188q152 216 373 216q167 0 266 -113q45 -52 78 -148q143 261 401 261q239 0 328 -216q42 -102 42 -306v-594h-143v594q0 137 -12 191q-22 104 -98 155q-61 40 -145 40q-104 0 -188 -60.5t-122.5 -160t-38.5 -333.5v-426h-139v557q0 153 -10 208 q-21 118 -100 173q-61 42 -145 42q-101 0 -186 -61q-81 -59 -120 -155q-41 -99 -41 -303v-461h-139z" />
<glyph unicode="n" horiz-adv-x="1249" d="M156 0v1088h140v-195q167 223 408 223q119 0 214.5 -60.5t141 -167t45.5 -328.5v-560h-139v519q0 184 -16 251q-52 217 -274 217q-127 0 -227.5 -83.5t-132.5 -208.5q-20 -79 -20 -296v-399h-140z" />
<glyph unicode="o" horiz-adv-x="1341" d="M104 541q0 226 150 392q165 183 417 183q251 0 416 -182q150 -166 150 -393q0 -240 -163 -404.5t-403 -164.5t-403.5 164t-163.5 405zM247 538q0 -116 55 -217q57 -104 155 -160t214 -56q248 0 367 213q57 102 57 220q0 180 -122.5 310.5t-301.5 130.5t-301.5 -130.5 t-122.5 -310.5z" />
<glyph unicode="p" horiz-adv-x="1397" d="M158 -398v1486h139v-200q166 228 432 228q235 0 398.5 -167t163.5 -402q0 -238 -160 -405q-162 -170 -398 -170q-259 0 -436 215v-585h-139zM287 538q0 -260 215 -380q103 -58 218 -58q116 0 216 60q97 59 155.5 163t58.5 219q0 116 -58 220t-157.5 161.5t-216.5 57.5 q-186 0 -308.5 -128t-122.5 -315z" />
<glyph unicode="q" horiz-adv-x="1397" d="M106 547q0 235 163.5 402t398.5 167q269 0 433 -228v200h138v-1486h-138v585q-177 -215 -437 -215q-236 0 -398 170q-160 167 -160 405zM247 542q0 -116 59 -220.5t158.5 -163t213.5 -58.5q115 0 218 58t158.5 157t55.5 223q0 187 -122.5 315t-308.5 128 q-250 0 -373 -219q-59 -104 -59 -220z" />
<glyph unicode="r" horiz-adv-x="616" d="M103 0v1088h143v-159q127 187 283 187q58 0 124 -37l-73 -118q-44 19 -74 19q-168 0 -234 -236q-26 -93 -26 -376v-368h-143z" />
<glyph unicode="s" horiz-adv-x="795" d="M54 126l88 100q107 -121 227 -121q79 0 140.5 51.5t61.5 129.5q0 79 -73 139q-36 30 -142 84q-121 62 -177 123q-76 82 -76 196q0 127 85.5 207.5t212.5 80.5q150 0 302 -147l-90 -93q-112 109 -219 109q-65 0 -115 -43t-50 -107q0 -108 208 -216q128 -66 186 -126 q81 -84 81 -201q0 -138 -95 -229t-234 -91q-201 0 -321 154z" />
<glyph unicode="t" horiz-adv-x="694" d="M87 968v120h191v404h141v-404h222v-120h-222v-968h-141v968h-191z" />
<glyph unicode="u" horiz-adv-x="1245" d="M138 564v524h141v-508q0 -188 20 -256q31 -104 120 -162q84 -54 196 -54q109 0 191 51q87 55 120 154q21 63 21 267v508h143v-534q0 -184 -35 -292q-48 -147 -175 -225q-106 -65 -265 -65q-313 0 -424 245q-53 115 -53 347z" />
<glyph unicode="v" horiz-adv-x="1135" d="M53 1088h149l364 -792l361 792h150l-498 -1088h-25z" />
<glyph unicode="w" horiz-adv-x="1702" d="M9 1088h144l333 -790l349 790h25l348 -790l339 790h146l-472 -1088h-27l-346 779l-349 -779h-26z" />
<glyph unicode="x" horiz-adv-x="983" d="M-7 0l412 571l-373 517h168l288 -403l288 403h168l-372 -517l419 -571h-170l-333 457l-328 -457h-167z" />
<glyph unicode="y" horiz-adv-x="1098" d="M39 1088h148l374 -838l363 838h149l-649 -1486h-148l210 480z" />
<glyph unicode="z" horiz-adv-x="870" d="M9 0l616 965h-558v123h799l-616 -964h596v-124h-837z" />
<glyph unicode="{" horiz-adv-x="850" d="M109 639q0 55 78 74q106 26 148 69q58 60 58 160v310q0 152 96 260q100 112 250 112q85 0 85 -72q0 -63 -90.5 -72t-143.5 -74t-53 -155v-309q0 -105 -35 -173.5t-120 -129.5q155 -111 155 -304v-309q0 -89 53.5 -155t141.5 -74q92 -8 92 -72q0 -71 -86 -71 q-150 0 -249 112q-96 107 -96 259v310q0 91 -55 156t-144 73q-85 7 -85 75z" />
<glyph unicode="|" horiz-adv-x="674" d="M265 -251v1779q0 96 72 96t72 -96l-1 -1779q0 -96 -71 -96q-72 0 -72 96z" />
<glyph unicode="}" horiz-adv-x="850" d="M27 -275q0 64 92 72q88 8 143 75q52 64 52 154v309q0 106 35 175t120 129q-86 61 -120.5 129t-34.5 174v309q0 90 -53 155t-142 74q-92 9 -92 72q0 72 85 72q151 0 250 -112q95 -108 95 -260v-310q0 -91 55.5 -156t144.5 -72q85 -7 85 -75q0 -55 -80 -75 q-106 -25 -147 -70q-58 -63 -58 -159v-310q0 -152 -96 -259q-99 -112 -249 -112q-85 0 -85 71z" />
<glyph unicode="~" d="M47 597v144q154 125 293 125q95 0 294 -96q135 -65 205 -65q127 0 290 140v-144q-153 -128 -285 -128q-100 0 -318 104q-121 58 -186 58q-129 0 -293 -138z" />
<glyph horiz-adv-x="1229" d="M41 59v469h162q54 0 83 -7q89 -21 125 -114q18 -49 18 -111q0 -102 -45 -163q-36 -51 -98 -66q-33 -8 -76 -8h-169zM103 114h100q82 0 115 33q47 47 47 150q0 134 -83 166q-25 9 -80 9h-99v-358zM485 59v469h339v-56h-277v-143h260v-55h-260v-160h288v-55h-350zM895 59 v469h62v-414h231v-55h-293z" />
<glyph unicode="&#xa1;" horiz-adv-x="502" d="M165 808q0 146 84 146q88 0 88 -138q0 -136 -86 -136t-86 128zM174 -362l11 758q1 59 5 71q11 29 55 29q46 0 60 -23q9 -16 9 -69l7 -763q0 -41 -15 -53.5t-57 -12.5q-76 0 -75 63z" />
<glyph unicode="&#xa2;" horiz-adv-x="1135" d="M103 535q0 244 148 410q154 171 396 171q90 0 181 -33l133 257l121 -60l-132 -257q72 -46 116 -94l-85 -105q-46 44 -95 76l-394 -766q75 -32 144 -32q146 0 306 128l91 -106q-172 -152 -396 -152q-96 0 -208 37l-152 -295l-117 64l151 301q-208 187 -208 456zM244 543 q0 -213 133 -334l388 752q-64 21 -121 21q-183 0 -295 -130q-105 -123 -105 -309z" />
<glyph unicode="&#xa3;" horiz-adv-x="1120" d="M87 724q0 69 47 69h135v230q0 130 27 201q36 96 135 142q81 37 208 37q142 0 262 -76q138 -87 138 -222q0 -47 -89 -47q-26 0 -53 55q-45 93 -103 127t-163 34q-170 0 -208 -113q-17 -49 -18 -163l-1 -205h238q69 0 69 -64q0 -48 -9 -61q-12 -16 -56 -16h-242v-501h601 q48 0 65 -10q24 -13 24 -56q0 -65 -26 -78q-14 -7 -92 -7h-822q-45 0 -45 81q0 70 45 70h115v501h-115q-45 0 -56 13t-11 59z" />
<glyph unicode="&#xa4;" horiz-adv-x="1468" d="M233 266l136 133q-67 91 -92 172q-17 55 -17 129q0 126 53 216q18 31 56 85l-136 132l68 67l133 -131q149 107 301 107q157 0 301 -109l133 133l66 -67l-133 -132q106 -137 106 -305q0 -155 -106 -297l133 -133l-66 -65l-133 133q-99 -69 -172 -92q-56 -17 -129 -17 q-128 0 -222 56q-37 22 -79 53l-133 -133zM356 700q0 -217 190 -327q88 -51 189 -51q218 0 328 190q51 87 51 188q0 218 -190 328q-88 51 -189 51q-218 0 -328 -190q-51 -88 -51 -189z" />
<glyph unicode="&#xa5;" horiz-adv-x="1135" d="M62 1471h167l337 -602l340 602h166l-417 -735h356v-117h-374v-155h374v-117h-374v-347h-144v347h-370v117h370v155h-370v117h353z" />
<glyph unicode="&#xa6;" horiz-adv-x="1376" d="M616 -398v957l143 54v-1011h-143zM616 686v822h143v-767z" />
<glyph unicode="&#xa7;" horiz-adv-x="1205" d="M130 -94q0 22 26 47.5t48 25.5q17 0 35 -20q90 -102 165 -144q89 -50 212 -50q116 0 185 56q75 60 75 174q0 100 -73 167q-47 42 -163 97l-134 63q-160 75 -225 135q-100 93 -100 231q0 172 157 279q-146 97 -146 271q0 178 129 277q117 90 300 90q111 0 270 -73 q184 -84 184 -182q0 -20 -25.5 -45.5t-45.5 -25.5q-21 0 -68 46q-157 153 -327 153q-114 0 -189 -56q-84 -62 -84 -172q0 -114 97 -179q48 -33 169 -89l139 -64q144 -66 211 -133q93 -92 93 -223q0 -165 -178 -268q159 -95 159 -280q0 -182 -126 -279q-113 -88 -301 -88 q-126 0 -281 67q-188 81 -188 192zM319 701q0 -89 86 -155q37 -29 164 -91l193 -95q140 86 140 195q0 91 -86 157q-38 29 -166 91l-204 99q-127 -80 -127 -201z" />
<glyph unicode="&#xa8;" horiz-adv-x="756" d="M58 1402q0 48 34 82t82 34t82 -34t34 -82t-34 -82t-82 -34t-82 34t-34 82zM466 1402q0 48 34 82t82 34t82 -34t34 -82t-34 -82t-82 -34t-82 34t-34 82z" />
<glyph unicode="&#xa9;" horiz-adv-x="1530" d="M-20 757q0 211 105 392t287.5 286t393.5 105t393 -104.5t287 -286.5t105 -392q0 -211 -104.5 -392t-287.5 -286.5t-393 -105.5q-211 0 -393.5 105t-287.5 287t-105 392zM89 757q0 -182 90.5 -339t248 -247.5t338.5 -90.5q182 0 338.5 90.5t247 247.5t90.5 339t-90 338.5 t-247.5 247.5t-339.5 91t-338.5 -91t-247 -248t-90.5 -338zM355 753q0 205 103 336q113 142 313 142q156 0 257 -75q109 -82 122 -232h-136q-42 178 -235 178q-144 0 -218 -107q-63 -93 -63 -244q0 -145 60 -236q70 -108 207 -108q213 0 249 246h136q-18 -159 -119 -256 q-104 -102 -261 -102q-200 0 -311 131q-104 123 -104 327z" />
<glyph unicode="&#xaa;" horiz-adv-x="756" d="M57 1152q0 135 75 239q83 117 213 117q123 0 205 -116v99h114v-681h-114v94q-84 -110 -207 -110q-130 0 -213 118q-73 105 -73 240zM173 1150q0 -93 48 -167q54 -85 143 -85q91 0 145 82q47 72 47 168q0 95 -47 167q-54 84 -144 84q-89 0 -144 -83q-48 -72 -48 -166z" />
<glyph unicode="&#xab;" horiz-adv-x="870" d="M21 542l222 546h148l-223 -546l223 -542h-148zM479 542l222 546h148l-224 -546l224 -542h-148z" />
<glyph unicode="&#xac;" horiz-adv-x="1241" d="M115 887v137h1012v-577h-137l-1 440h-874z" />
<glyph unicode="&#xad;" horiz-adv-x="1024" d="M-12 508v129h1048v-129h-1048z" />
<glyph unicode="&#xae;" horiz-adv-x="1530" d="M-20 756q0 211 105.5 394.5t288 288.5t392.5 105q212 0 392.5 -104.5t286.5 -288.5t106 -391q0 -212 -104.5 -393.5t-288 -287.5t-392.5 -106q-210 0 -392.5 105.5t-288 287.5t-105.5 390zM89 757q0 -183 90.5 -339t249.5 -247t339 -91t336.5 91.5t247 248t90.5 339.5 q0 181 -91 339t-247 249t-336 91q-182 0 -340 -91t-248.5 -249.5t-90.5 -340.5zM439 313v904h377q108 0 161 -16q79 -25 124 -97q36 -60 36 -140q0 -70 -26 -119q-19 -37 -87 -81q67 -33 87 -82q16 -37 16 -123v-102q0 -69 32 -120l15 -24h-160q-16 62 -21 133l-7 111 q-6 100 -63 122q-29 11 -114 11h-227v-377h-143zM582 819h222q100 0 137 23q53 33 53 112q0 81 -53 111q-39 22 -128 22h-231v-268z" />
<glyph unicode="&#xaf;" horiz-adv-x="993" d="M152 1360v119h690v-119h-690z" />
<glyph unicode="&#xb0;" horiz-adv-x="682" d="M77 1121q0 115 81 196t196 81t196.5 -81t81.5 -196t-81.5 -196t-196.5 -81q-116 0 -196.5 80.5t-80.5 196.5zM186 1121q0 -70 49 -119.5t119 -49.5t119.5 49.5t49.5 119.5t-49.5 119.5t-119.5 49.5t-119 -49.5t-49 -119.5z" />
<glyph unicode="&#xb1;" d="M43 0v131h1088v-131h-1088zM43 596v131h477v479h131v-479h480v-131h-480v-405h-131v405h-477z" />
<glyph unicode="&#xb2;" horiz-adv-x="841" d="M95 756q9 136 92 244q62 83 195 179q110 80 152 126q75 83 75 176q0 86 -53 137t-140 51q-204 0 -204 -228q0 -34 -27 -34h-40q-27 0 -27 40q0 144 85.5 228.5t229.5 84.5q118 0 202.5 -79.5t84.5 -196.5q0 -112 -86 -208q-42 -47 -178 -151q-121 -92 -151 -121 q-81 -76 -106 -157h445l9 99q2 26 26 26h41q23 0 23 -17q0 -5 -2 -21l-22 -178h-624z" />
<glyph unicode="&#xb3;" horiz-adv-x="841" d="M101 1039q0 31 3 38q7 15 32 15h19q42 0 42 -35q0 -222 208 -222q96 0 153.5 55t57.5 150q0 91 -64 146q-61 52 -154 52q-21 0 -21 10v63q0 19 29 19q78 0 131 43q57 47 57 123q0 79 -58 127q-54 46 -134 46q-77 0 -130 -40q-58 -45 -58 -120q0 -22 -23 -22h-43 q-28 0 -28 34q0 111 86 178q79 62 193 62q123 0 208 -62q93 -70 93 -189q0 -169 -158 -221q187 -72 187 -253q0 -135 -94 -217q-89 -77 -227 -77q-137 0 -222 80.5t-85 216.5z" />
<glyph unicode="&#xb4;" horiz-adv-x="768" d="M234 1290l218 308h215l-295 -308h-138z" />
<glyph unicode="&#xb5;" horiz-adv-x="1180" d="M147 -398v1486h141v-600q0 -117 24 -181q32 -82 118 -134q75 -46 162 -46q183 0 264 164q37 76 37 210v587h140v-1088h-140v118q-114 -143 -302 -143q-189 0 -303 140v-513h-141z" />
<glyph unicode="&#xb6;" horiz-adv-x="1155" d="M94 1105q0 189 116 308q97 100 299 100h513v-75h-84v-1669h-119v1669h-217v-1669h-119v937q-75 0 -111 8q-135 29 -209 144q-69 104 -69 247z" />
<glyph unicode="&#xb7;" horiz-adv-x="567" d="M161 735q0 52 35.5 88t87.5 36t87.5 -36t35.5 -88q0 -51 -36 -87.5t-87 -36.5t-87 36.5t-36 87.5z" />
<glyph unicode="&#xb8;" horiz-adv-x="664" d="M139 -350l22 69q64 -20 120 -20q135 0 135 65q0 43 -62 43q-24 0 -70 -9l27 202h88l-17 -118q23 3 38 3q48 0 81.5 -30t33.5 -77q0 -81 -78 -124q-63 -34 -151 -34q-89 0 -167 30z" />
<glyph unicode="&#xb9;" horiz-adv-x="841" d="M141 1622v41q0 20 21 20h95q138 0 155 76h82v-911l196 -1q28 0 28 -26v-39q0 -26 -22 -26h-489q-31 0 -31 25v45q0 20 23 20h193v752h-227q-24 0 -24 24z" />
<glyph unicode="&#xba;" horiz-adv-x="756" d="M55 1149q0 145 87 249q93 110 235 110t235 -110q88 -104 88 -249t-88 -247q-93 -108 -235 -108t-234 108q-88 103 -88 247zM172 1147q0 -97 53 -168q58 -78 152 -78t153 78q53 71 53 168q0 95 -54 169q-60 82 -152 82t-151 -82q-54 -74 -54 -169z" />
<glyph unicode="&#xbb;" horiz-adv-x="870" d="M21 0l223 545l-223 543h148l222 -543l-222 -545h-148zM479 0l223 545l-223 543h147l223 -543l-223 -545h-147z" />
<glyph unicode="&#xbc;" horiz-adv-x="1610" d="M80 1292v20q0 38 40 38h63q48 0 64 7q23 11 36 50h92v-679h121q42 0 42 -41v-20q0 -43 -40 -43h-348q-44 0 -44 39v30q0 35 39 35h118v523h-131q-33 0 -40 5q-12 7 -12 36zM397 -37l717 1444h137l-717 -1444h-137zM1002 245v27q0 22 25 58l293 423q21 30 50 30h23 q44 0 44 -37v-439h87q44 0 44 -40q0 -37 -3 -44q-7 -18 -35 -18h-93v-105h85q43 0 43 -40q0 -36 -4 -44q-7 -16 -36 -16h-297q-48 0 -48 38v25q0 37 44 37h107v105h-283q-46 0 -46 40zM1107 307h226v326z" />
<glyph unicode="&#xbd;" horiz-adv-x="1610" d="M80 1292v20q0 38 40 38h63q48 0 64 7q23 11 36 50h92v-679h121q42 0 42 -41v-20q0 -43 -40 -43h-348q-44 0 -44 39v30q0 35 39 35h118v523h-131q-33 0 -40 5q-12 7 -12 36zM373 -37l717 1444h137l-717 -1444h-137zM1044 0q7 119 64 201q45 65 155 147q78 58 105 88 q53 58 53 121q0 122 -123 122q-125 0 -130 -152q-1 -43 -42 -43h-22q-41 0 -41 43q0 114 65.5 185t178.5 71q98 0 165 -64t67 -162q0 -86 -65 -161q-35 -42 -135 -118q-153 -117 -172 -174h282l4 44q5 50 42 50h21q40 0 40 -30q0 -10 -2 -26l-18 -142h-492z" />
<glyph unicode="&#xbe;" horiz-adv-x="1610" d="M65 858q0 53 44 53q37 0 49.5 -8t13.5 -40q3 -143 130 -143q148 0 148 132q0 125 -149 130q-34 1 -34 39v29q0 36 35 37q123 2 123 107q0 51 -37 81q-35 27 -87 27q-109 0 -117 -99q-3 -36 -42 -36h-19q-44 0 -44 42q0 91 67 146q62 52 155 52q101 0 166 -52 q72 -56 72 -154q0 -107 -89 -163q111 -63 111 -187q0 -108 -72 -172.5t-181 -64.5q-111 0 -177 66.5t-66 177.5zM397 -37l717 1444h136l-717 -1444h-136zM1001 245v27q0 22 25 58l294 423q21 30 50 30h22q45 0 45 -37v-439h87q43 0 43 -40q0 -37 -3 -44q-6 -18 -34 -18h-93 v-105h85q42 0 42 -40q0 -37 -3 -44q-7 -16 -37 -16h-296q-48 0 -48 38v25q0 37 44 37h106v105h-283q-46 0 -46 40zM1106 307h227v326z" />
<glyph unicode="&#xbf;" horiz-adv-x="743" d="M84 -52q0 138 124 303q112 149 112 287q0 46 6 60q11 24 50 24q47 0 60 -20q9 -15 9 -66q0 -93 -32 -171q-24 -58 -89 -152q-101 -146 -101 -259q0 -82 34 -136q40 -63 118 -63q164 0 164 238q0 39 10.5 51.5t48.5 12.5q49 0 62 -27q9 -17 9 -73q0 -138 -81 -228 t-218 -90q-138 0 -214 86q-72 83 -72 223zM286 893q0 126 84 126q89 0 89 -144q0 -126 -83 -126q-90 0 -90 144z" />
<glyph unicode="&#xd7;" d="M87 1069l92 93l408 -409l408 409l92 -93l-407 -409l403 -404l-92 -92l-404 404l-406 -404l-92 92l405 404z" />
<glyph unicode="&#xf7;" d="M44 599v126h1087v-126h-1087zM500 1079q0 35 25 59.5t60 24.5t59.5 -24.5t24.5 -59.5t-24.5 -59.5t-59.5 -24.5t-60 24.5t-25 59.5zM501 253q0 35 24.5 60t59.5 25q36 0 60.5 -24.5t24.5 -60.5q0 -35 -25 -60t-60 -25t-59.5 25t-24.5 60z" />
<glyph unicode="&#x2000;" horiz-adv-x="880" />
<glyph unicode="&#x2001;" horiz-adv-x="1761" />
<glyph unicode="&#x2002;" horiz-adv-x="880" />
<glyph unicode="&#x2003;" horiz-adv-x="1761" />
<glyph unicode="&#x2004;" horiz-adv-x="587" />
<glyph unicode="&#x2005;" horiz-adv-x="440" />
<glyph unicode="&#x2006;" horiz-adv-x="293" />
<glyph unicode="&#x2007;" horiz-adv-x="293" />
<glyph unicode="&#x2008;" horiz-adv-x="220" />
<glyph unicode="&#x2009;" horiz-adv-x="352" />
<glyph unicode="&#x200a;" horiz-adv-x="97" />
<glyph unicode="&#x2010;" horiz-adv-x="934" d="M39 518v121h857v-121h-857z" />
<glyph unicode="&#x2011;" horiz-adv-x="934" d="M39 518v121h857v-121h-857z" />
<glyph unicode="&#x2012;" horiz-adv-x="934" d="M39 518v121h857v-121h-857z" />
<glyph unicode="&#x2013;" horiz-adv-x="1024" d="M-12 508v129h1048v-129h-1048z" />
<glyph unicode="&#x2014;" horiz-adv-x="2048" d="M-12 508v129h2072v-129h-2072z" />
<glyph unicode="&#x2018;" horiz-adv-x="719" d="M286 959v172q0 121 16 195q17 78 69 182l78 -44q-60 -119 -71 -230h89v-275h-181z" />
<glyph unicode="&#x2019;" horiz-adv-x="719" d="M252 1233v275h181v-172q0 -122 -16 -195q-18 -78 -70 -182l-77 44q60 121 70 230h-88z" />
<glyph unicode="&#x201a;" horiz-adv-x="725" d="M255 0v275h181v-172q0 -122 -16 -195q-18 -78 -70 -182l-77 43q60 120 70 231h-88z" />
<glyph unicode="&#x201c;" horiz-adv-x="1028" d="M204 959v172q0 121 16 195q17 78 69 182l78 -44q-60 -119 -71 -230h89v-275h-181zM649 959v172q0 122 16 195q17 79 69 182l78 -44q-60 -119 -71 -230h89v-275h-181z" />
<glyph unicode="&#x201d;" horiz-adv-x="991" d="M181 1233v275h181v-172q0 -122 -16 -195q-18 -78 -70 -182l-77 44q60 121 70 230h-88zM626 1233v275h181v-172q0 -122 -16 -195q-18 -78 -70 -182l-77 44q60 121 70 230h-88z" />
<glyph unicode="&#x201e;" horiz-adv-x="1028" d="M198 0v275h181v-172q0 -122 -16 -195q-18 -78 -70 -182l-77 44q60 121 70 230h-88zM643 0v275h181v-172q0 -122 -16 -195q-18 -78 -70 -182l-77 44q60 121 70 230h-88z" />
<glyph unicode="&#x2022;" horiz-adv-x="1241" d="M313 746q0 128 89.5 217.5t217.5 89.5t217.5 -89.5t89.5 -217.5t-89.5 -218t-217.5 -90t-217.5 90t-89.5 218z" />
<glyph unicode="&#x2026;" horiz-adv-x="2048" d="M218 96q0 52 35.5 88t87.5 36t87.5 -36t35.5 -88q0 -51 -36 -87.5t-87 -36.5t-87 36.5t-36 87.5zM901 96q0 52 35.5 88t87.5 36t87.5 -36t35.5 -88q0 -51 -36 -87.5t-87 -36.5t-87 36.5t-36 87.5zM1584 96q0 52 35.5 88t87.5 36q51 0 87 -36.5t36 -87.5t-36 -87.5 t-87 -36.5t-87 36.5t-36 87.5z" />
<glyph unicode="&#x202f;" horiz-adv-x="352" />
<glyph unicode="&#x2039;" horiz-adv-x="514" d="M75 542l222 546h148l-223 -546l223 -542h-148z" />
<glyph unicode="&#x203a;" horiz-adv-x="514" d="M70 0l223 545l-223 543h148l222 -543l-222 -545h-148z" />
<glyph unicode="&#x205f;" horiz-adv-x="440" />
<glyph unicode="&#x2122;" horiz-adv-x="2048" d="M12 1376v137h758v-137h-305v-725h-150v725h-303zM936 651v862h243l267 -597l282 597h238v-862h-150v710l-321 -710h-99l-311 710v-710h-149z" />
<glyph unicode="&#x25fc;" horiz-adv-x="1090" d="M0 0v1090h1090v-1090h-1090z" />
</font>
</defs>
</svg>
